<svg width="60" height="60" viewBox="0 0 60 60" fill="none" xmlns="http://www.w3.org/2000/svg">
<rect width="60" height="60" rx="30" fill="#F1C40E"/>
<path d="M30 30C27.8783 30 25.8434 29.1571 24.3431 27.6569C22.8429 26.1566 22 24.1217 22 22C22 19.8783 22.8429 17.8434 24.3431 16.3431C25.8434 14.8429 27.8783 14 30 14C32.1217 14 34.1566 14.8429 35.6569 16.3431C37.1571 17.8434 38 19.8783 38 22C38 24.1217 37.1571 26.1566 35.6569 27.6569C34.1566 29.1571 32.1217 30 30 30ZM30 36C36.372 36 42.09 37.142 46 42.126V46H14V42.126C17.91 37.14 23.628 36 30 36Z" fill="black"/>
</svg>
